<?xml version="1.0" standalone="no"?><!DOCTYPE svg PUBLIC "-//W3C//DTD SVG 1.1//EN" "http://www.w3.org/Graphics/SVG/1.1/DTD/svg11.dtd"><svg t="1677833191599" class="icon" viewBox="0 0 1024 1024" version="1.1" xmlns="http://www.w3.org/2000/svg" p-id="1077" xmlns:xlink="http://www.w3.org/1999/xlink" width="32" height="32"><path d="M1018.96777173 402.91961919q0 13.41927573-15.83786666 29.2571424l-221.2620192 215.80068587 52.4288 304.7424q0.62415253 4.29104747 0.62415253 12.17097173 0 12.79512427-6.3975616 21.61127574t-18.56853333 8.81615253q-11.5468192 0-24.3419424-7.33379093l-273.6908192-143.86712427-273.6908192 143.86712427q-13.41927573 7.33379093-24.3419424 7.33379093-12.79512427 0-19.19268587-8.81615253t-6.3975616-21.61127574q0-3.66689493 1.24830507-12.17097173l52.4288-304.7424-221.88617174-215.80068587q-15.21371413-16.4620192-15.21371413-29.2571424 0-22.54750507 34.1723424-28.0088384l305.99070507-44.4708576 137.15748586-277.35771413q11.5468192-24.96609493 29.88129494-24.96609493t29.88129493 24.96609493l137.15748587 277.35771413 305.99070506 44.4708576q34.1723424 5.46133333 34.1723424 28.0088384z" fill="#ffa201" p-id="1078"></path></svg>